<svg width="29" height="29" viewBox="0 0 29 29" fill="none" xmlns="http://www.w3.org/2000/svg">
<path fill-rule="evenodd" clip-rule="evenodd" d="M1.81283 14.5002C1.81283 14.7405 1.90831 14.971 2.07827 15.141C2.24822 15.3109 2.47873 15.4064 2.71908 15.4064L24.0939 15.4064L18.39 21.1085C18.2198 21.2787 18.1242 21.5095 18.1242 21.7502C18.1242 21.9908 18.2198 22.2216 18.39 22.3918C18.5601 22.562 18.7909 22.6576 19.0316 22.6576C19.2722 22.6576 19.503 22.562 19.6732 22.3918L26.9232 15.1418C27.0076 15.0576 27.0746 14.9576 27.1202 14.8475C27.1659 14.7374 27.1895 14.6194 27.1895 14.5002C27.1895 14.381 27.1659 14.2629 27.1202 14.1528C27.0746 14.0427 27.0076 13.9427 26.9232 13.8585L19.6732 6.60854C19.5889 6.52428 19.4889 6.45745 19.3788 6.41184C19.2687 6.36624 19.1507 6.34277 19.0316 6.34277C18.7909 6.34277 18.5601 6.43837 18.39 6.60854C18.2198 6.77871 18.1242 7.00951 18.1242 7.25017C18.1242 7.49082 18.2198 7.72162 18.39 7.89179L24.0939 13.5939L2.71908 13.5939C2.47873 13.5939 2.24822 13.6894 2.07827 13.8594C1.90831 14.0293 1.81283 14.2598 1.81283 14.5002Z" fill="#E3B90E"/>
</svg>
