<svg width="51" height="51" viewBox="0 0 51 51" fill="none" xmlns="http://www.w3.org/2000/svg">
<circle cx="25.5" cy="25.5" r="25.5" fill="#FFD4B9"/>
<path d="M33.75 25.8025V21.375L26.875 17.9375V15.875H29.625V13.125H26.875V10.375H24.125V13.125H21.375V15.875H24.125V17.9375L17.25 21.375V25.8025L11.75 28.25V39.25H24.125V33.75C24.125 32.9937 24.7437 32.375 25.5 32.375C26.2562 32.375 26.875 32.9937 26.875 33.75V39.25H39.25V28.25L33.75 25.8025ZM36.5 36.5H29.625V33.695C29.625 31.3712 27.7687 29.4875 25.5 29.4875C23.2312 29.4875 21.375 31.3712 21.375 33.695V36.5H14.5V29.9137L20 27.425V22.8188L25.5 20L31 22.805V27.4113L36.5 29.9V36.5ZM25.5 23.4375C26.6412 23.4375 27.5625 24.3588 27.5625 25.5C27.5625 26.6413 26.6412 27.5625 25.5 27.5625C24.3587 27.5625 23.4375 26.6413 23.4375 25.5C23.4375 24.3588 24.3587 23.4375 25.5 23.4375Z" fill="#BA6012"/>
</svg>
