<svg width="83" height="83" viewBox="0 0 83 83" fill="none" xmlns="http://www.w3.org/2000/svg">
<path d="M50.4167 73.3333H73.3333V9.16667H9.16667V73.3333H41.25V50.4167H32.0833V41.25H41.25V33.6692C41.25 27.5412 41.8917 25.3183 43.0833 23.0771C44.2581 20.8603 46.0722 19.0478 48.29 17.875C50.0408 16.9354 52.2179 16.3717 56.0221 16.1288C57.5315 16.031 59.484 16.1532 61.8796 16.4954V25.2037H59.5833C55.3804 25.2037 53.6433 25.4008 52.6075 25.9554C51.99 26.2741 51.487 26.7771 51.1683 27.3946C50.6183 28.4304 50.4167 29.4571 50.4167 33.6646V41.25H61.875L59.5833 50.4167H50.4167V73.3333ZM4.58333 0H77.9167C79.1322 0 80.298 0.482885 81.1576 1.34243C82.0171 2.20197 82.5 3.36776 82.5 4.58333V77.9167C82.5 79.1322 82.0171 80.298 81.1576 81.1576C80.298 82.0171 79.1322 82.5 77.9167 82.5H4.58333C3.36776 82.5 2.20197 82.0171 1.34243 81.1576C0.482885 80.298 0 79.1322 0 77.9167V4.58333C0 3.36776 0.482885 2.20197 1.34243 1.34243C2.20197 0.482885 3.36776 0 4.58333 0Z" fill="black"/>
</svg>
