<svg width="161" height="148" viewBox="0 0 161 148" fill="none" xmlns="http://www.w3.org/2000/svg">
<path d="M54.4191 86.1484C37.7313 91.8937 18.3303 88.5056 5.20016 76.7682C-2.70256 69.7037 6.03698 64.3312 12.6239 59.3884C19.7562 54.0363 28.1836 54.7075 36.4027 57.0368C44.7588 59.4049 60.4166 69.7844 47.7988 56.4609C35.2347 43.1941 18.8835 29.3322 45.8914 18.8605C54.1505 15.6582 61.1077 20.0768 66.5546 25.8283C68.4524 27.8323 74.2657 38.7573 75.3793 37.1081C83.1865 25.5463 75.184 5.8696 94.4376 2.87198C107.936 0.770306 129.485 4.31657 124.974 22.6473C123.338 29.298 119.379 35.151 115.088 40.369C111.134 45.1772 119.691 37.5761 119.8 37.4987C127.298 32.1874 140.17 21.3459 149.941 26.7338C158.137 31.2535 159.179 42.0083 153.699 48.9154C150.501 52.9466 145.325 58.915 140.615 61.4391C130.708 66.7481 132.988 59.7991 143.162 63.0076C158.625 67.8842 163.804 84.9886 151.655 96.494C144.416 103.35 140.939 103.021 132.864 98.368C124.677 93.6504 133.555 106.439 133.45 111.877C133.143 127.802 121.628 150.554 102.747 140.822C98.9554 138.867 95.8164 136.001 97.3449 131.475C100.372 122.512 97.4095 129.025 91.9556 134.19C80.9832 144.582 61.2223 150.672 48.1853 139.951C40.2238 133.403 67.8177 123.068 62.7827 124.401C53.9817 126.732 46.059 131.338 37.188 133.382C31.3074 134.737 16.3007 133.694 16.2343 124.566C16.1545 113.587 27.2139 100.538 36.7125 95.7523C41.7839 93.1969 46.6797 94.9796 51.7676 93.436" stroke="#F9DB36" stroke-width="4" stroke-linecap="round"/>
</svg>
