<svg width="51" height="51" viewBox="0 0 51 51" fill="none" xmlns="http://www.w3.org/2000/svg">
<circle cx="25.5" cy="25.5" r="25.5" fill="#B9FDFF"/>
<path d="M20.4103 26.1998C20.1218 26.1998 19.8399 26.2853 19.6 26.4455C19.3602 26.6058 19.1733 26.8336 19.0629 27.1C18.9525 27.3665 18.9237 27.6597 18.9799 27.9426C19.0362 28.2255 19.1751 28.4854 19.3791 28.6893C19.583 28.8933 19.8429 29.0322 20.1257 29.0884C20.4086 29.1447 20.7019 29.1158 20.9683 29.0054C21.2348 28.8951 21.4626 28.7081 21.6228 28.4683C21.7831 28.2285 21.8686 27.9465 21.8686 27.6581C21.8686 27.2713 21.7149 26.9004 21.4414 26.6269C21.168 26.3534 20.797 26.1998 20.4103 26.1998ZM20.4103 19.6664C20.1218 19.6664 19.8399 19.752 19.6 19.9122C19.3602 20.0725 19.1733 20.3002 19.0629 20.5667C18.9525 20.8332 18.9237 21.1264 18.9799 21.4093C19.0362 21.6922 19.1751 21.952 19.3791 22.156C19.583 22.3599 19.8429 22.4988 20.1257 22.5551C20.4086 22.6114 20.7019 22.5825 20.9683 22.4721C21.2348 22.3617 21.4626 22.1748 21.6228 21.935C21.7831 21.6952 21.8686 21.4132 21.8686 21.1248C21.8686 20.738 21.7149 20.3671 21.4414 20.0936C21.168 19.8201 20.797 19.6664 20.4103 19.6664ZM25.4998 22.5831C25.1131 22.5831 24.7421 22.7368 24.4686 23.0102C24.1951 23.2837 24.0415 23.6547 24.0415 24.0414V25.4998C24.0415 25.8865 24.1951 26.2575 24.4686 26.531C24.7421 26.8045 25.1131 26.9581 25.4998 26.9581C25.8866 26.9581 26.2575 26.8045 26.531 26.531C26.8045 26.2575 26.9582 25.8865 26.9582 25.4998V24.0414C26.9582 23.6547 26.8045 23.2837 26.531 23.0102C26.2575 22.7368 25.8866 22.5831 25.4998 22.5831ZM37.8957 20.4977C37.3926 20.2082 36.8369 20.0218 36.2611 19.9492C35.6852 19.8766 35.1007 19.9193 34.5415 20.0748C33.9595 20.2307 33.4176 20.5091 32.9519 20.8914L16.0353 11.106C15.8136 10.978 15.5621 10.9106 15.3061 10.9106C15.0501 10.9106 14.7986 10.978 14.5769 11.106C14.3517 11.2326 14.1641 11.4168 14.0334 11.6398C13.9027 11.8627 13.8336 12.1164 13.8332 12.3748V31.581C12.9725 31.8713 12.2263 32.4274 11.7021 33.1692C11.1779 33.9109 10.9028 34.7999 10.9165 35.7081C10.9161 36.8485 11.361 37.944 12.1564 38.7612C12.9518 39.5784 14.0349 40.0527 15.1748 40.0831H16.0207C20.7992 40.0719 25.4898 38.7964 29.616 36.3862C33.7423 33.9761 37.1573 30.517 39.5144 26.3602C40.0588 25.3656 40.1958 24.1985 39.8966 23.1049C39.5973 22.0113 38.8852 21.0765 37.9102 20.4977H37.8957ZM16.7498 14.8977L31.1728 23.2248C29.5727 25.6124 27.4336 27.5903 24.9282 28.9988C22.4227 30.4073 19.6212 31.2069 16.7498 31.3331V14.8977ZM36.9769 24.931C34.812 28.7455 31.6502 31.8993 27.8302 34.0546C24.0102 36.21 19.6759 37.2856 15.2915 37.1664C14.9047 37.1664 14.5338 37.0128 14.2603 36.7393C13.9868 36.4658 13.8332 36.0949 13.8332 35.7081C13.832 35.5127 13.8702 35.3191 13.9453 35.1387C14.0205 34.9583 14.1311 34.7949 14.2707 34.6581C14.5446 34.394 14.911 34.2475 15.2915 34.2498H16.0353C19.7798 34.2483 23.4569 33.2524 26.6904 31.364C29.924 29.4756 32.5981 26.7625 34.4394 23.5019C34.5279 23.3419 34.6489 23.2022 34.7946 23.0917C34.9402 22.9812 35.1073 22.9023 35.2852 22.8602C35.653 22.7593 36.0456 22.8064 36.379 22.9914C36.7136 23.1713 36.9648 23.4746 37.0792 23.8368C37.1936 24.1991 37.1621 24.5916 36.9915 24.931H36.9769Z" fill="#128DBA"/>
</svg>
