<svg width="51" height="51" viewBox="0 0 51 51" fill="none" xmlns="http://www.w3.org/2000/svg">
<circle cx="25.5" cy="25.5" r="25.5" fill="#FFFDB9"/>
<g clip-path="url(#clip0_153_815)">
<path d="M21.3125 28.8331C21.455 30.6219 22.8688 32.015 25.4038 32.18V33.5H26.5287V32.1706C29.1537 31.9869 30.6875 30.5844 30.6875 28.5481C30.6875 26.6975 29.5138 25.7431 27.4156 25.2481L26.5287 25.0381V21.4438C27.6537 21.5713 28.37 22.1863 28.5425 23.0375H30.515C30.3725 21.3144 28.895 19.9662 26.5287 19.82V18.5H25.4038V19.8481C23.1631 20.0675 21.635 21.4156 21.635 23.3225C21.635 25.01 22.7712 26.0825 24.6594 26.5231L25.4038 26.7069V30.5206C24.2506 30.3463 23.4875 29.7144 23.315 28.8331H21.3125ZM25.3944 24.7719C24.2881 24.515 23.6881 23.9919 23.6881 23.2044C23.6881 22.3231 24.335 21.6631 25.4038 21.47V24.77L25.3944 24.7719ZM26.6919 27.0087C28.0363 27.32 28.6569 27.8244 28.6569 28.715C28.6569 29.7312 27.8844 30.4288 26.5287 30.5563V26.9712L26.6919 27.0087Z" fill="#BAA612"/>
<path d="M26 39.125C22.519 39.125 19.1806 37.7422 16.7192 35.2808C14.2578 32.8194 12.875 29.481 12.875 26C12.875 22.519 14.2578 19.1806 16.7192 16.7192C19.1806 14.2578 22.519 12.875 26 12.875C29.481 12.875 32.8194 14.2578 35.2808 16.7192C37.7422 19.1806 39.125 22.519 39.125 26C39.125 29.481 37.7422 32.8194 35.2808 35.2808C32.8194 37.7422 29.481 39.125 26 39.125ZM26 41C29.9782 41 33.7936 39.4196 36.6066 36.6066C39.4196 33.7936 41 29.9782 41 26C41 22.0218 39.4196 18.2064 36.6066 15.3934C33.7936 12.5804 29.9782 11 26 11C22.0218 11 18.2064 12.5804 15.3934 15.3934C12.5804 18.2064 11 22.0218 11 26C11 29.9782 12.5804 33.7936 15.3934 36.6066C18.2064 39.4196 22.0218 41 26 41Z" fill="#BAA612"/>
<path d="M26 36.3125C23.265 36.3125 20.6419 35.226 18.708 33.292C16.774 31.3581 15.6875 28.735 15.6875 26C15.6875 23.265 16.774 20.6419 18.708 18.708C20.6419 16.774 23.265 15.6875 26 15.6875C28.735 15.6875 31.3581 16.774 33.292 18.708C35.226 20.6419 36.3125 23.265 36.3125 26C36.3125 28.735 35.226 31.3581 33.292 33.292C31.3581 35.226 28.735 36.3125 26 36.3125ZM26 37.25C27.4774 37.25 28.9403 36.959 30.3052 36.3936C31.6701 35.8283 32.9103 34.9996 33.955 33.955C34.9996 32.9103 35.8283 31.6701 36.3936 30.3052C36.959 28.9403 37.25 27.4774 37.25 26C37.25 24.5226 36.959 23.0597 36.3936 21.6948C35.8283 20.3299 34.9996 19.0897 33.955 18.045C32.9103 17.0004 31.6701 16.1717 30.3052 15.6064C28.9403 15.041 27.4774 14.75 26 14.75C23.0163 14.75 20.1548 15.9353 18.045 18.045C15.9353 20.1548 14.75 23.0163 14.75 26C14.75 28.9837 15.9353 31.8452 18.045 33.955C20.1548 36.0647 23.0163 37.25 26 37.25Z" fill="#BAA612"/>
</g>
<defs>
<clipPath id="clip0_153_815">
<rect width="30" height="30" fill="white" transform="translate(11 11)"/>
</clipPath>
</defs>
</svg>
