<svg width="95" height="95" viewBox="0 0 95 95" fill="none" xmlns="http://www.w3.org/2000/svg">
<path fill-rule="evenodd" clip-rule="evenodd" d="M47.5007 27.708C42.2516 27.708 37.2175 29.7932 33.5058 33.5049C29.7942 37.2165 27.709 42.2506 27.709 47.4997C27.709 52.7488 29.7942 57.7828 33.5058 61.4945C37.2175 65.2062 42.2516 67.2913 47.5007 67.2913C52.7497 67.2913 57.7838 65.2062 61.4955 61.4945C65.2071 57.7828 67.2923 52.7488 67.2923 47.4997C67.2923 42.2506 65.2071 37.2165 61.4955 33.5049C57.7838 29.7932 52.7497 27.708 47.5007 27.708ZM35.6257 47.4997C35.6257 50.6491 36.8768 53.6696 39.1038 55.8966C41.3308 58.1236 44.3512 59.3747 47.5007 59.3747C50.6501 59.3747 53.6706 58.1236 55.8975 55.8966C58.1245 53.6696 59.3757 50.6491 59.3757 47.4997C59.3757 44.3502 58.1245 41.3298 55.8975 39.1028C53.6706 36.8758 50.6501 35.6247 47.5007 35.6247C44.3512 35.6247 41.3308 36.8758 39.1038 39.1028C36.8768 41.3298 35.6257 44.3502 35.6257 47.4997Z" fill="white"/>
<path d="M71.2513 19.791C70.2015 19.791 69.1947 20.2081 68.4523 20.9504C67.71 21.6927 67.293 22.6995 67.293 23.7493C67.293 24.7992 67.71 25.806 68.4523 26.5483C69.1947 27.2906 70.2015 27.7077 71.2513 27.7077C72.3011 27.7077 73.3079 27.2906 74.0503 26.5483C74.7926 25.806 75.2096 24.7992 75.2096 23.7493C75.2096 22.6995 74.7926 21.6927 74.0503 20.9504C73.3079 20.2081 72.3011 19.791 71.2513 19.791Z" fill="white"/>
<path fill-rule="evenodd" clip-rule="evenodd" d="M19.7923 3.95801C15.5931 3.95801 11.5658 5.62616 8.59646 8.59548C5.62713 11.5648 3.95898 15.5921 3.95898 19.7913V75.208C3.95898 79.4073 5.62713 83.4345 8.59646 86.4039C11.5658 89.3732 15.5931 91.0413 19.7923 91.0413H75.209C79.4082 91.0413 83.4355 89.3732 86.4048 86.4039C89.3742 83.4345 91.0423 79.4073 91.0423 75.208V19.7913C91.0423 15.5921 89.3742 11.5648 86.4048 8.59548C83.4355 5.62616 79.4082 3.95801 75.209 3.95801H19.7923ZM75.209 11.8747H19.7923C17.6927 11.8747 15.6791 12.7087 14.1944 14.1934C12.7097 15.6781 11.8757 17.6917 11.8757 19.7913V75.208C11.8757 77.3076 12.7097 79.3213 14.1944 80.8059C15.6791 82.2906 17.6927 83.1247 19.7923 83.1247H75.209C77.3086 83.1247 79.3223 82.2906 80.8069 80.8059C82.2916 79.3213 83.1257 77.3076 83.1257 75.208V19.7913C83.1257 17.6917 82.2916 15.6781 80.8069 14.1934C79.3223 12.7087 77.3086 11.8747 75.209 11.8747Z" fill="white"/>
</svg>
