<svg width="84" height="84" viewBox="0 0 84 84" fill="none" xmlns="http://www.w3.org/2000/svg">
<path d="M35.8118 35.8084C38.9868 32.6336 43.2605 30.8007 47.749 30.6886C52.2375 30.5766 56.5974 32.194 59.9268 35.2064L60.5603 35.8084L70.4583 45.7099C73.6819 48.9392 75.5168 53.2999 75.5717 57.8625C75.6267 62.4251 73.8974 66.8288 70.7525 70.1348C67.6076 73.4408 63.2958 75.3878 58.7361 75.5607C54.1764 75.7336 49.7296 74.1188 46.3433 71.0604L45.7133 70.4584L38.2863 63.0314C37.6586 62.4015 37.2942 61.5564 37.267 60.6675C37.2399 59.7787 37.5521 58.9129 38.1402 58.2459C38.7283 57.5789 39.5483 57.1608 40.4335 57.0765C41.3187 56.9922 42.2029 57.2479 42.9063 57.7919L43.2353 58.0824L50.6623 65.5094C52.5876 67.4459 55.1915 68.5561 57.9218 68.6047C60.652 68.6533 63.2938 67.6363 65.2867 65.7695C67.2796 63.9027 68.4668 61.333 68.5966 58.6054C68.7264 55.8778 67.7885 53.207 65.9818 51.1594L65.5093 50.6589L55.6113 40.7609C54.6363 39.7857 53.4787 39.0121 52.2047 38.4843C50.9306 37.9565 49.5651 37.6849 48.1861 37.6849C46.807 37.6849 45.4415 37.9565 44.1675 38.4843C42.8935 39.0121 41.7359 39.7857 40.7608 40.7609C40.1041 41.4172 39.2135 41.7857 38.2851 41.7853C37.3566 41.785 36.4664 41.4159 35.8101 40.7591C35.1538 40.1024 34.7853 39.2118 34.7856 38.2834C34.7859 37.3549 35.1551 36.4647 35.8118 35.8084ZM13.5378 13.5344C16.7128 10.3596 20.9865 8.52669 25.475 8.41464C29.9635 8.30259 34.3234 9.92002 37.6528 12.9324L38.2863 13.5344L45.7098 20.9649C46.3375 21.5947 46.702 22.4399 46.7291 23.3287C46.7563 24.2175 46.4441 25.0834 45.856 25.7504C45.2678 26.4173 44.4479 26.8355 43.5627 26.9198C42.6774 27.0041 41.7933 26.7483 41.0898 26.2044L40.7608 25.9139L33.3373 18.4904C31.4087 16.5743 28.8121 15.481 26.0938 15.4404C23.3756 15.3998 20.7475 16.4151 18.7625 18.2726C16.7775 20.1302 15.5904 22.6853 15.4508 25.4003C15.3113 28.1153 16.2302 30.7786 18.0143 32.8299L18.4868 33.3339L28.3883 43.2354C30.3574 45.2038 33.0276 46.3096 35.8118 46.3096C38.596 46.3096 41.2663 45.2038 43.2353 43.2354C43.5603 42.9102 43.9461 42.6522 44.3708 42.4761C44.7954 42.3 45.2506 42.2093 45.7103 42.2092C46.1701 42.209 46.6253 42.2994 47.0501 42.4752C47.4749 42.651 47.8609 42.9087 48.1861 43.2336C48.5113 43.5586 48.7693 43.9444 48.9453 44.3691C49.1214 44.7937 49.2121 45.2489 49.2123 45.7086C49.2124 46.1684 49.1221 46.6236 48.9463 47.0484C48.7705 47.4732 48.5128 47.8592 48.1878 48.1844C45.0129 51.3591 40.7391 53.1921 36.2506 53.3041C31.7621 53.4162 27.4022 51.7987 24.0728 48.7864L23.4358 48.1844L13.5378 38.2829C10.2571 35.0011 8.41406 30.5508 8.41406 25.9104C8.41406 21.27 10.2571 16.8161 13.5378 13.5344Z" fill="black"/>
</svg>
