<svg width="72" height="71" viewBox="0 0 72 71" fill="none" xmlns="http://www.w3.org/2000/svg">
<path d="M9.55501 44.5145C14.3828 48.2798 18.8167 52.5072 23.8353 56.0335C26.4761 57.889 37.2264 67.5327 40.5421 65.7311C44.6071 63.5223 48.5053 58.9614 50.4867 54.8506C54.7602 45.9847 60.0095 36.8532 62.928 27.4402C65.7049 18.484 64.8308 4.62534 54.0203 3.18513C45.1191 1.9993 41.3895 5.10356 35.6216 11.3075C28.7442 18.7049 12.6869 5.24914 4.37375 13.0092C-1.39594 18.395 4.73474 39.2893 9.3842 43.4759" stroke="#FF8934" stroke-width="4" stroke-linecap="round"/>
<path d="M15.4844 32.9717C16.8227 35.6335 19.3791 38.1002 21.2506 40.3903C22.843 42.3389 24.4593 44.3025 26.3304 45.9873" stroke="#FF8934" stroke-width="4" stroke-linecap="round"/>
<path d="M22.6133 33.9756C24.6179 35.8127 26.3489 38.3539 28.0363 40.4834" stroke="#FF8934" stroke-width="4" stroke-linecap="round"/>
</svg>
