<svg width="17" height="17" viewBox="0 0 17 17" fill="none" xmlns="http://www.w3.org/2000/svg">
<path d="M9.74737 8.50752L2.12571 7.73968L2.125 2.88618C2.12509 2.75657 2.1583 2.62914 2.22146 2.51596C2.28463 2.40279 2.37566 2.30763 2.48593 2.23951C2.59619 2.1714 2.72203 2.13258 2.85151 2.12675C2.98099 2.12091 3.10981 2.14826 3.22575 2.20618L14.4542 7.82043C14.5804 7.8837 14.6864 7.98081 14.7606 8.1009C14.8347 8.22098 14.8739 8.35932 14.8739 8.50043C14.8739 8.64155 14.8347 8.77988 14.7606 8.89997C14.6864 9.02005 14.5804 9.11716 14.4542 9.18043L3.22717 14.7947C3.11122 14.8526 2.9824 14.88 2.85293 14.8741C2.72345 14.8683 2.59761 14.8295 2.48734 14.7613C2.37708 14.6932 2.28605 14.5981 2.22288 14.4849C2.15971 14.3717 2.12651 14.2443 2.12642 14.1147V9.26118L9.74737 8.50752Z" fill="#F25353"/>
</svg>
