<svg width="51" height="51" viewBox="0 0 51 51" fill="none" xmlns="http://www.w3.org/2000/svg">
<circle cx="25.5" cy="25.5" r="25.5" fill="#C5FFB9"/>
<path fill-rule="evenodd" clip-rule="evenodd" d="M28.666 15.3335C29.7269 15.3335 30.7443 15.7549 31.4944 16.5051C32.2446 17.2552 32.666 18.2726 32.666 19.3335H36.666C37.3733 19.3335 38.0515 19.6144 38.5516 20.1145C39.0517 20.6146 39.3327 21.2929 39.3327 22.0002V35.3335C39.3327 36.0407 39.0517 36.719 38.5516 37.2191C38.0515 37.7192 37.3733 38.0002 36.666 38.0002H15.3327C14.6254 38.0002 13.9472 37.7192 13.4471 37.2191C12.947 36.719 12.666 36.0407 12.666 35.3335V22.0002C12.666 21.2929 12.947 20.6146 13.4471 20.1145C13.9472 19.6144 14.6254 19.3335 15.3327 19.3335H19.3327C19.3327 18.2726 19.7541 17.2552 20.5043 16.5051C21.2544 15.7549 22.2718 15.3335 23.3327 15.3335H28.666ZM20.666 20.6668C20.3394 20.6669 20.0242 20.7868 19.7802 21.0038C19.5361 21.2208 19.3802 21.5198 19.342 21.8442L19.3327 22.0002V35.3335C19.3331 35.6733 19.4632 36.0002 19.6965 36.2473C19.9298 36.4944 20.2486 36.6431 20.5879 36.6631C20.9271 36.683 21.2612 36.5726 21.5218 36.3545C21.7824 36.1364 21.9499 35.827 21.99 35.4895L21.9993 35.3335V22.0002C21.9993 21.6465 21.8589 21.3074 21.6088 21.0574C21.3588 20.8073 21.0196 20.6668 20.666 20.6668ZM31.3327 20.6668C30.9791 20.6668 30.6399 20.8073 30.3899 21.0574C30.1398 21.3074 29.9993 21.6465 29.9993 22.0002V35.3335C29.9993 35.6871 30.1398 36.0263 30.3899 36.2763C30.6399 36.5264 30.9791 36.6668 31.3327 36.6668C31.6863 36.6668 32.0254 36.5264 32.2755 36.2763C32.5255 36.0263 32.666 35.6871 32.666 35.3335V22.0002C32.666 21.6465 32.5255 21.3074 32.2755 21.0574C32.0254 20.8073 31.6863 20.6668 31.3327 20.6668ZM28.666 18.0002H23.3327C23.0061 18.0002 22.6909 18.1201 22.4469 18.3371C22.2028 18.5541 22.0469 18.8532 22.0087 19.1775L21.9993 19.3335H29.9993C29.9993 19.0069 29.8794 18.6917 29.6624 18.4477C29.4454 18.2036 29.1463 18.0477 28.822 18.0095L28.666 18.0002Z" fill="#12BA5E"/>
</svg>
