<svg width="101" height="115" viewBox="0 0 101 115" fill="none" xmlns="http://www.w3.org/2000/svg">
<path d="M37.2729 26.2112C32.5804 34.6974 26.4681 40.6709 25.7007 50.9437C24.8046 62.9411 33.6002 73.0012 45.8298 72.8245C61.9279 72.5919 77.7221 30.8226 55.0851 31.8641C48.2191 32.1799 42.4286 36.5264 40.3565 43.0263C38.4381 49.044 37.7135 57.2846 46.3911 56.9054C51.9524 56.6624 60.6355 51.7792 55.7368 45.1011C54.4598 43.3603 50.2067 40.7742 49.5042 44.0118" stroke="#2AAE33" stroke-width="3" stroke-linecap="round"/>
<path d="M76.3125 46.9883C82.6059 47.1665 88.7661 45.6517 94.8638 44.3866" stroke="#2AAE33" stroke-width="3" stroke-linecap="round"/>
<path d="M74.0254 31.3457C76.1005 26.8027 78.6384 23.3092 82.1964 19.8651" stroke="#2AAE33" stroke-width="3" stroke-linecap="round"/>
<path d="M56.8047 19.0889C57.8763 14.8809 60.0998 12.3508 62.7751 9.02415" stroke="#2AAE33" stroke-width="3" stroke-linecap="round"/>
<path d="M40.5305 15.5581C38.7244 12.751 39.3663 7.93825 39.0719 4.82818" stroke="#2AAE33" stroke-width="3" stroke-linecap="round"/>
<path d="M22.9263 26.8857C20.5866 25.8409 18.3539 24.6888 16.0857 23.5082" stroke="#2AAE33" stroke-width="3" stroke-linecap="round"/>
<path d="M18.2178 48.584C15.7529 49.5758 13.3388 50.6601 10.9082 51.7314" stroke="#2AAE33" stroke-width="3" stroke-linecap="round"/>
<path d="M17.0075 67.2542C13.497 70.6523 10.0099 74.0475 6.32031 77.2422" stroke="#2AAE33" stroke-width="3" stroke-linecap="round"/>
<path d="M39.4577 81.5917C40.6775 88.8346 36.8043 98.184 35.2615 105.295" stroke="#2AAE33" stroke-width="3" stroke-linecap="round"/>
<path d="M64.1407 81.2679C66.7655 84.4644 72.1703 86.2685 73.6169 89.9506" stroke="#2AAE33" stroke-width="3" stroke-linecap="round"/>
<path d="M73.2919 65.2668C77.1596 66.3625 80.9802 67.6249 84.8492 68.721" stroke="#2AAE33" stroke-width="3" stroke-linecap="round"/>
</svg>
