<svg width="69" height="69" viewBox="0 0 69 69" fill="none" xmlns="http://www.w3.org/2000/svg">
<path d="M56.3231 19.2338C53.4572 18.6035 50.8646 17.0816 48.9173 14.8864C46.9701 12.6913 45.7683 9.93563 45.4844 7.015V5.75H35.5656V45.0513C35.5676 46.7951 35.0209 48.4954 34.0029 49.9113C32.9849 51.3272 31.5472 52.3868 29.8934 52.9402C28.2397 53.4936 26.4538 53.5126 24.7886 52.9945C23.1235 52.4765 21.6636 51.4476 20.6156 50.0537C19.6768 48.8199 19.1019 47.348 18.956 45.8045C18.8101 44.261 19.0989 42.7074 19.7899 41.3195C20.4808 39.9316 21.5464 38.7647 22.8659 37.9507C24.1855 37.1368 25.7065 36.7083 27.2569 36.7138C28.1141 36.7119 28.9668 36.8379 29.7869 37.0875V27.025C28.8332 26.9085 27.8724 26.8605 26.9119 26.8813C23.3736 26.9758 19.9398 28.1001 17.0307 30.1164C14.1217 32.1327 11.8638 34.9536 10.5335 38.2336C9.20321 41.5136 8.85826 45.1103 9.54089 48.5834C10.2235 52.0564 11.9041 55.255 14.3769 57.7875C16.9112 60.3641 20.1542 62.1291 23.6939 62.8584C27.2336 63.5877 30.9102 63.2482 34.2565 61.8832C37.6029 60.5182 40.4679 58.1892 42.4876 55.1921C44.5072 52.1951 45.5904 48.6653 45.5994 45.0513V24.9263C49.5998 27.7839 54.3969 29.3125 59.3131 29.2962V19.5212C58.3476 19.5222 57.3844 19.4259 56.4381 19.2338H56.3231Z" fill="white"/>
</svg>
